<svg xmlns="http://www.w3.org/2000/svg" xmlns:xlink="http://www.w3.org/1999/xlink" fill="none" version="1.1" width="154.09510803222656" height="176.66513061523438" viewBox="0 0 154.09510803222656 176.66513061523438"><path d="M128.37601,115.626C139.57201,117.28999,153.651,126.0341,153.651,138.0061L154.095,163.69189C154.12283,170.31589,148.74599,176.69287,142.12199,176.66504L12.306,176.66504C5.5430031,176.66504,0.33300781,171.34389,0.33300781,164.69189L0,144.339C0,130.92599,14.745001,115.516,25.941999,115.516L10.865,90.904999L46.007996,90.904999C39.355995,81.814003,35.475998,69.841003,35.475998,56.538002L35.475998,53.434002C21.728998,50.993999,12.970999,47.446999,12.970999,43.235001C12.970999,39.021999,21.396997,35.474998,34.366997,33.035999C36.806,26.384001,47.669998,0,59.309998,0C64.631004,0,74.053497,1.0949116,76.494507,5.3059082C79.265503,1.0929079,88.35701,0.1099968,93.678009,0.1099968C105.65001,0.1099968,115.84901,28.821995,116.51401,32.369995C131.591,34.808998,141.457,38.689995,141.457,42.901997C141.457,46.781998,132.589,50.661999,118.953,53.100998L118.953,56.204998C118.953,69.507996,114.74001,81.481995,108.42101,90.571999L143.563,90.571999L128.37601,115.626ZM63.973904,71.615051C56.210194,71.615051,51.305943,60.846859,51,57.256191L51,55Q63.79575,57.776295,76.897079,57.776295Q89.998398,57.776295,103.4053,55L103.40526,57.256104Q100.57071,71.615051,91.887344,71.615051Q83.101669,71.615051,80.114136,61.364151L74.292068,61.364151Q72.53566,71.615051,63.973904,71.615051Z" fill-rule="evenodd" fill="#ffffff" fill-opacity="1" style="mix-blend-mode:passthrough"/></svg>