<svg xmlns="http://www.w3.org/2000/svg" fill="none" version="1.1" width="154.09510803222656" height="196.6651153564453" viewBox="0 0 154.09510803222656 196.6651153564453"><path d="M153.651,144.006C153.651,132.034,139.57201,117.28999,128.37601,115.626L143.563,90.571999L108.42101,90.571999C114.74001,81.481995,118.953,69.507996,118.953,56.204998L118.953,53.100998C132.589,50.661999,141.457,46.781998,141.457,42.901997C141.457,38.689995,131.591,34.808998,116.51401,32.369995C115.84901,28.821995,105.65001,0.1099968,93.678009,0.1099968C88.35701,0.1099968,84.143005,2.8809967,81.372009,7.093997C81.372009,9.2009974,79.266006,11.305997,76.494011,11.305997C74.055008,11.305997,71.949013,9.5319967,71.617012,7.4259968C69.176003,3.2150002,64.631004,0,59.309998,0C47.669998,0,36.806,26.384001,34.366997,33.035999C21.396997,35.474998,12.970999,39.021999,12.970999,43.235001C12.970999,47.446999,21.728998,50.993999,35.475998,53.434002L35.475998,56.538002C35.475998,69.841003,39.355995,81.814003,46.007996,90.904999L10.865,90.904999L25.941999,115.516C14.745001,115.516,0,130.92599,0,144.339L0.33300018,184.692C0.33300018,191.34399,5.5430012,196.66501,12.305998,196.66501L142.12199,196.66501C148.74599,196.69284,154.12283,191.31601,154.095,184.69202L153.651,144.006ZM67.735001,186.798L62.081001,186.798L51.549004,109.19601L73.611008,128.485L67.735001,186.798ZM91.903,186.798L86.249001,186.798L80.262001,128.485L102.43401,108.863L91.903,186.798ZM105.206,64.298004C105.20611,64.298149,102.13003,79.813965,92.707031,79.813965C83.173027,79.813965,79.93103,68.737061,79.93103,68.737061L73.613037,68.737061Q71.707031,79.813965,62.416016,79.813965C53.991013,79.813965,48.669037,68.178093,48.337036,64.298096L48.337036,61.860107L76.439941,64.860107L105.20605,61.860107L105.206,64.298004Z" fill="#ffffff" fill-opacity="1"/></svg>
