<svg xmlns="http://www.w3.org/2000/svg" xmlns:xlink="http://www.w3.org/1999/xlink" fill="none" version="1.1" width="158.3328857421875" height="166.66656494140625" viewBox="0 0 158.3328857421875 166.66656494140625"><path d="M158.06314,89.181831C158.09824,86.736137,158.13333,84.291016,158.13333,81.84845L158.19,81.835114C158.19,79.21241,158.15569,76.587219,158.12137,73.961433C158.04349,68.003815,157.96558,62.043167,158.28833,56.101788C158.93832,43.859287,152.4175,35.475952,142.53833,29.475952C128.98915,21.227619,114.70583,14.063452,100.94499,6.0992851C87.607498,-1.6340485,74.410828,-2.2840481,61.059998,5.7067852C46.565002,14.360952,32.098335,22.94762,17.786665,31.832619C6.7508316,38.68512,1.4716663,49.506786,0.70916557,61.315952C-0.42000198,78.638443,-0.010002136,96.163452,0.62499809,113.44511C0.9774971,122.83095,4.8166637,131.37762,13.976664,136.46928C27.452318,144.01315,40.902672,151.60208,54.327499,159.23595C69.880836,168.03845,85.363335,169.93512,101.31167,159.91345C114.395,151.69179,128.00084,144.24345,141,135.91429C152.09334,128.81679,158.98083,119.18762,158.21834,105.54929C157.90639,100.10523,157.98479,94.642097,158.06314,89.181831ZM94.621658,72.029282C90.001663,74.866791,84.651665,76.419281,79.167496,76.51178C68.469139,76.214279,60.919136,71.149277,52.760803,66.882614C43.360809,61.911785,34.159142,56.630116,24.871637,51.470119C16.925806,46.973454,15.782473,41.990124,24.448305,36.667622C38.590805,27.917622,52.718307,19.223454,67.099976,10.934286C76.359138,5.6117859,85.955811,6.5059528,95.129974,11.598454C108.45415,18.965954,121.69165,26.550121,135.02914,33.999287C143.28581,38.630951,143.51166,42.490952,135.55165,47.393452C121.97417,55.776783,108.53833,64.295944,94.621658,72.029282ZM66.747543,38.332581C66.7892,43.411747,72.153381,46.973415,79.647537,46.973415C87.100037,46.946747,92.377533,43.181744,92.208374,38.048412C92.067535,33.105083,86.097534,29.041748,79.365036,29.041748C72.98587,29.095913,66.747543,33.714249,66.747543,38.332581ZM150.25072,77.050591C150.24036,79.309135,150.23001,81.567963,150.23001,83.826782L150.21585,83.826782C150.21246,85.716728,150.20425,87.606674,150.19603,89.49662C150.16994,95.50251,150.14384,101.5084,150.27252,107.51428C150.68585,115.56094,146.56918,123.20178,139.48918,127.53094C124.12001,137.33678,108.53835,146.77678,92.914177,156.13512C89.710007,158.05846,85.434174,156.20346,84.643341,154.10345C83.670013,151.53096,83.62751,147.54846,83.542511,144.29762C83.3564,137.20087,83.359932,130.10379,83.363457,123.00305C83.36554,118.81663,83.367622,114.62893,83.330841,110.43929C83.260834,95.433456,90.317505,84.151779,103.02,76.147614C115.355,68.454285,127.88834,61.127613,140.49167,53.895115C142.66501,52.676785,145.19168,51.321781,147.83084,52.676785C150.13084,53.881786,150.13084,56.535954,150.13084,58.770954C150.30658,64.858452,150.27864,70.953506,150.25072,77.050591ZM8.4104538,96.151878C8.4339762,93.371048,8.4575024,90.589752,8.4575024,87.808456L8.4574986,65.488434C8.4574986,57.280933,13.609999,53.827602,20.934999,57.7551C35.386665,65.448425,49.712502,73.398438,63.726669,81.781769C71.616669,86.535095,74.622505,94.864273,75.017502,103.2076C75.647285,116.12632,75.467018,129.09534,75.286774,142.06256C75.256897,144.21187,75.22702,146.36113,75.200836,148.5101C75.088333,157.15092,71.136673,159.23676,63.134171,154.9576C48.335449,146.95102,33.572525,138.87872,18.845835,130.74094C11.760836,126.80011,8.6975021,120.39427,8.4575024,112.82344C8.3164034,107.27058,8.3634205,101.71216,8.4104538,96.151878ZM134.46504,82.457581C139.58836,83.189255,147.02586,75.279251,146.64503,67.830917C146.58253,65.110916,144.49338,62.82674,141.69087,62.41341C136.31421,61.655079,128.63588,69.94342,129.17255,76.132584C129.48254,79.749237,131.95255,82.105911,134.46504,82.457581ZM27.327538,92.276749C31.759205,94.132584,35.104206,91.965088,35.189205,87.197586C35.274204,82.024246,29.628372,73.885086,24.505039,71.771744C19.805038,69.821747,17.956707,72.421753,17.448372,76.240921C16.77087,81.11676,22.684204,90.340088,27.327538,92.276749ZM124.51505,108.48758C126.119,106.07326,127.01822,103.25963,127.11171,100.36258C127.27837,97.697586,125.87755,95.167587,123.48421,93.807587C121.33969,93.062286,118.97942,93.264084,116.99254,94.362595C114.7482,95.918823,112.89339,97.972122,111.57254,100.36259C110.14671,102.92175,108.28421,109.84341,111.81255,112.55176C116.44171,116.15425,122.60921,111.73842,124.51505,108.48758ZM56.23254,123.71092C50.995869,120.54175,46.339207,123.25092,47.27087,129.63008C48.048374,135.23759,51.587543,140.14592,56.783375,142.82092C59.916706,144.17592,65.110046,143.80925,65.110046,138.60925C65.180878,132.06758,61.878376,127.11092,56.23254,123.71092ZM103.27338,125.75592C97.571701,125.62091,90.105881,134.08592,91.728378,141.07425C92.095032,142.79424,93.323364,145.86841,96.245041,146.34258C101.56587,147.22258,108.46753,139.02925,108.62337,132.16258C108.7067,128.76259,107.73337,125.86426,103.27338,125.75592Z" fill-rule="evenodd" fill="#B38B4F" fill-opacity="1" style="mix-blend-mode:passthrough"/></svg>