<svg xmlns="http://www.w3.org/2000/svg" width="24" height="24" viewBox="0 0 24 24" fill="none">
  <path d="M4 4V10H10V4H4Z" fill="currentColor" fill-opacity="0.8"/>
  <path d="M14 4V10H20V4H14Z" fill="currentColor" fill-opacity="0.6"/>
  <path d="M4 14V20H10V14H4Z" fill="currentColor" fill-opacity="0.6"/>
  <path d="M14 14V20H20V14H14Z" fill="currentColor" fill-opacity="0.4"/>
  <path d="M8.5 8C9.32843 8 10 8.67157 10 9.5C10 10.3284 9.32843 11 8.5 11C7.67157 11 7 10.3284 7 9.5C7 8.67157 7.67157 8 8.5 8Z" fill="#1a1a2e"/>
  <path d="M18.5 8C19.3284 8 20 8.67157 20 9.5C20 10.3284 19.3284 11 18.5 11C17.6716 11 17 10.3284 17 9.5C17 8.67157 17.6716 8 18.5 8Z" fill="#1a1a2e"/>
  <path d="M8.5 18C9.32843 18 10 18.6716 10 19.5C10 20.3284 9.32843 21 8.5 21C7.67157 21 7 20.3284 7 19.5C7 18.6716 7.67157 18 8.5 18Z" fill="#1a1a2e"/>
  <path d="M18.5 18C19.3284 18 20 18.6716 20 19.5C20 20.3284 19.3284 21 18.5 21C17.6716 21 17 20.3284 17 19.5C17 18.6716 17.6716 18 18.5 18Z" fill="#1a1a2e"/>
</svg>