<svg xmlns="http://www.w3.org/2000/svg" fill="none" version="1.1" width="162.5" height="176.33251953125" viewBox="0 0 162.5 176.33251953125"><path d="M156.25,0C159.70178,0,162.5,2.7982197,162.5,6.25L162.5,147.08334C162.5,150.53511,159.70178,153.33333,156.25,153.33333L99.037476,153.33325L86.070801,174.4834C83.815735,176.75743,80.206703,176.95883,77.712524,174.94995L77.233276,174.52075L63.837524,153.33325L6.25,153.33331C3.0307426,153.33315,0.3382225,150.8877,0.029167175,147.68332L0,147.08334L0,6.25C0,2.7982197,2.7982197,0,6.25,0L156.25,0ZM88.5,108.75L74,108.75L74,123.25L88.5,123.25L88.5,108.75ZM91.5,29.166748L71,29.166748L74,94.166748L88.5,94.166748L91.5,29.166748Z" fill="#ffffff" fill-opacity="1"/></svg>
